<?xml version="1.0" encoding="UTF-8" standalone="no"?>
<svg
   xmlns:dc="http://purl.org/dc/elements/1.1/"
   xmlns:cc="http://creativecommons.org/ns#"
   xmlns:rdf="http://www.w3.org/1999/02/22-rdf-syntax-ns#"
   xmlns:svg="http://www.w3.org/2000/svg"
   xmlns="http://www.w3.org/2000/svg"
   xmlns:sodipodi="http://sodipodi.sourceforge.net/DTD/sodipodi-0.dtd"
   xmlns:inkscape="http://www.inkscape.org/namespaces/inkscape"
   inkscape:export-ydpi="96"
   inkscape:export-xdpi="96"
   inkscape:export-filename="/home/maug/GIT/xfce4-settings/icons/24x24/org.xfce.settings.default-applications.png"
   viewBox="0 0 24 24"
   style="display:inline;enable-background:new"
   version="1.0"
   id="svg11300"
   height="24"
   width="24"
   sodipodi:docname="org.xfce.settings.default-applications.svg"
   inkscape:version="1.0 (4035a4fb49, 2020-05-01)">
  <sodipodi:namedview
     pagecolor="#ffffff"
     bordercolor="#666666"
     borderopacity="1"
     objecttolerance="10"
     gridtolerance="10"
     guidetolerance="10"
     inkscape:pageopacity="0"
     inkscape:pageshadow="2"
     inkscape:window-width="1920"
     inkscape:window-height="1031"
     id="namedview35"
     showgrid="false"
     inkscape:zoom="22.627417"
     inkscape:cx="24.382755"
     inkscape:cy="13.741297"
     inkscape:window-x="0"
     inkscape:window-y="25"
     inkscape:window-maximized="1"
     inkscape:current-layer="g3547"
     showguides="false"
     inkscape:lockguides="true"
     inkscape:pagecheckerboard="false"
     inkscape:document-rotation="0">
    <inkscape:grid
       type="xygrid"
       id="grid842"
       empspacing="4" />
  </sodipodi:namedview>
  <title
     id="title4162">Adwaita Icon Template</title>
  <defs
     id="defs3" />
  <metadata
     id="metadata4">
    <rdf:RDF>
      <cc:Work
         rdf:about="">
        <dc:format>image/svg+xml</dc:format>
        <dc:type
           rdf:resource="http://purl.org/dc/dcmitype/StillImage" />
        <dc:creator>
          <cc:Agent>
            <dc:title>GNOME Design Team</dc:title>
          </cc:Agent>
        </dc:creator>
        <dc:source />
        <cc:license
           rdf:resource="http://creativecommons.org/licenses/by-sa/4.0/" />
        <dc:title>Adwaita Icon Template</dc:title>
        <dc:subject>
          <rdf:Bag />
        </dc:subject>
        <dc:date />
        <dc:rights>
          <cc:Agent>
            <dc:title />
          </cc:Agent>
        </dc:rights>
        <dc:publisher>
          <cc:Agent>
            <dc:title />
          </cc:Agent>
        </dc:publisher>
        <dc:identifier />
        <dc:relation />
        <dc:language />
        <dc:coverage />
        <dc:description />
        <dc:contributor>
          <cc:Agent>
            <dc:title />
          </cc:Agent>
        </dc:contributor>
      </cc:Work>
      <cc:License
         rdf:about="http://creativecommons.org/licenses/by-sa/4.0/">
        <cc:permits
           rdf:resource="http://creativecommons.org/ns#Reproduction" />
        <cc:permits
           rdf:resource="http://creativecommons.org/ns#Distribution" />
        <cc:requires
           rdf:resource="http://creativecommons.org/ns#Notice" />
        <cc:requires
           rdf:resource="http://creativecommons.org/ns#Attribution" />
        <cc:permits
           rdf:resource="http://creativecommons.org/ns#DerivativeWorks" />
        <cc:requires
           rdf:resource="http://creativecommons.org/ns#ShareAlike" />
      </cc:License>
    </rdf:RDF>
  </metadata>
  <g
     style="display:inline;enable-background:new"
     id="g3547"
     transform="matrix(5.0000031,0,0,5.0000031,-2535.5554,-1718.0011)"
     inkscape:label="emoji-symbols-alt">
    <rect
       ry="0.37028468"
       rx="0.36902368"
       y="343.77145"
       x="507.11343"
       height="4.6285582"
       width="4.797307"
       id="rect838"
       style="display:inline;opacity:1;fill:#471d57;fill-opacity:1;stroke:none;stroke-width:0.0112386;stroke-linecap:butt;stroke-linejoin:miter;stroke-miterlimit:4;stroke-dasharray:none;stroke-dashoffset:0;stroke-opacity:1;marker:none;marker-start:none;marker-mid:none;marker-end:none;paint-order:normal;enable-background:new" />
    <path
       id="path1049"
       d="m 507.435,348.21314 c -0.10807,-0.0261 -0.20756,-0.10096 -0.26503,-0.19923 -0.0131,-0.0224 -0.0317,-0.0718 -0.0415,-0.10989 -0.0171,-0.0668 -0.0177,-0.0981 -0.0177,-0.90021 v -0.83093 h 1.11507 1.11508 v 1.02716 1.02715 l -0.92702,-7.4e-4 c -0.7686,-6.1e-4 -0.93589,-0.003 -0.97893,-0.0133 z"
       style="fill:#003445;stroke-width:0.00275305" />
    <g
       id="g831"
       transform="matrix(0.05517238,0,0,0.05423984,506.77973,347.66784)"
       style="display:inline;stroke-width:2.45822;enable-background:new" />
    <circle
       r="0"
       transform="scale(-1,1)"
       style="display:inline;opacity:1;vector-effect:none;fill:#d2d8dc;fill-opacity:1;stroke:none;stroke-width:0.0407339;stroke-linecap:square;stroke-linejoin:round;stroke-miterlimit:4;stroke-dasharray:none;stroke-dashoffset:0;stroke-opacity:1;enable-background:new"
       id="circle1153-9"
       cx="-509.41077"
       cy="347.70001" />
    <rect
       ry="0"
       rx="0"
       y="346"
       x="509.51208"
       height="0.17142808"
       width="2.3986535"
       id="rect974"
       style="fill:#471d57;fill-rule:evenodd;stroke-width:0.106874" />
    <rect
       transform="rotate(90)"
       style="display:inline;fill:#471d57;fill-rule:evenodd;stroke-width:0.102987;enable-background:new"
       id="rect974-3"
       width="2.2285659"
       height="0.17133239"
       x="346.00003"
       y="-509.68344"
       rx="0"
       ry="0" />
    <path
       id="path1047"
       d="m 509.68344,344.71432 v -1.1143 h 0.92988 c 1.01141,0 0.97606,-0.002 1.07748,0.0498 0.0589,0.0298 0.14033,0.11133 0.17019,0.17029 0.0514,0.10147 0.0498,0.0661 0.0498,1.07809 v 0.93038 h -1.11365 -1.11366 z"
       style="fill:#3c7902;stroke-width:0.00276052" />
    <path
       style="display:inline;fill:#52a302;stroke-width:0.00272591;enable-background:new"
       d="m 509.51078,344.90004 v -1.10002 h 0.91847 c 0.99901,0 0.96409,-0.002 1.06428,0.0491 0.0582,0.0294 0.1386,0.10991 0.1681,0.16811 0.0507,0.10017 0.0491,0.0652 0.0491,1.06428 v 0.9185 h -1.1 -1.09999 z"
       id="path1047-2" />
    <rect
       style="display:inline;fill:#3c7902;fill-rule:evenodd;stroke-width:0.115469;enable-background:new"
       id="rect974-6"
       width="2.3999984"
       height="0.19999987"
       x="509.51077"
       y="345.80002"
       rx="0"
       ry="0" />
    <rect
       transform="rotate(90)"
       ry="0"
       rx="0"
       y="-509.71075"
       x="343.60001"
       height="0.19999987"
       width="2.3999932"
       id="rect974-6-7"
       style="display:inline;fill:#3c7902;fill-rule:evenodd;stroke-width:0.115469;enable-background:new" />
    <path
       id="path1045"
       d="m 507.11688,344.88962 c 0.003,-0.92351 0.003,-0.93985 0.0219,-0.9944 0.048,-0.14442 0.1677,-0.25456 0.31,-0.28517 0.0331,-0.007 0.31502,-0.01 0.9694,-0.01 h 0.9226 v 1.11427 1.11429 h -1.11366 -1.11366 z"
       style="fill:#851b00;stroke-width:0.00275414" />
    <path
       style="display:inline;fill:#c02700;stroke-width:0.0027196;enable-background:new"
       d="m 507.3142,345.07309 c 0.003,-0.91167 0.003,-0.9278 0.0216,-0.98166 0.0474,-0.14257 0.16564,-0.2513 0.30619,-0.28152 0.0327,-0.007 0.31116,-0.01 0.95752,-0.01 h 0.91127 v 1.09998 1.10002 h -1.1 -1.1 z"
       id="path1045-9" />
    <rect
       transform="rotate(90)"
       style="display:inline;fill:#851b00;fill-rule:evenodd;stroke-width:0.115469;enable-background:new"
       id="rect974-6-5-3"
       width="2.3999932"
       height="0.19999987"
       x="343.60001"
       y="-509.51077"
       rx="0"
       ry="0" />
    <rect
       ry="0"
       rx="0"
       y="345.82858"
       x="507.11343"
       height="0.19999987"
       width="2.3999984"
       id="rect974-6-5"
       style="display:inline;fill:#851b00;fill-rule:evenodd;stroke-width:0.11547;enable-background:new" />
    <path
       id="path1051"
       d="m 507.39845,348.385 c -0.0622,-0.0154 -0.11504,-0.0447 -0.16469,-0.0911 -0.083,-0.0777 -0.11426,-0.15968 -0.11376,-0.29869 l 3.1e-4,-0.0892 0.016,0.0445 c 0.0462,0.12815 0.15824,0.23104 0.28879,0.26506 0.0454,0.0118 0.17411,0.0136 0.98406,0.0136 h 0.93179 v 0.0841 0.0841 l -0.94914,-7.6e-4 c -0.72294,-5.6e-4 -0.95969,-0.003 -0.99339,-0.0117 z"
       style="fill:#003445;stroke-width:0.00275305" />
    <path
       style="display:inline;fill:#006888;stroke-width:0.002698;enable-background:new"
       d="m 507.63063,347.98634 c -0.10661,-0.0254 -0.20476,-0.0983 -0.26146,-0.19395 -0.0129,-0.0218 -0.0313,-0.0699 -0.0409,-0.107 -0.0169,-0.065 -0.0175,-0.0955 -0.0175,-0.8764 v -0.80897 h 1.09999 1.10001 v 1 1 l -0.91449,-7.1e-4 c -0.75821,-6.1e-4 -0.92324,-0.003 -0.96569,-0.0129 z"
       id="path1049-1" />
    <rect
       transform="rotate(90)"
       style="display:inline;fill:#003445;fill-rule:evenodd;stroke-width:0.115469;enable-background:new"
       id="rect974-6-5-6"
       width="2.3999755"
       height="0.19999987"
       x="346.00003"
       y="-509.51077"
       rx="0"
       ry="0" />
    <rect
       style="display:inline;fill:#003145;fill-opacity:1;fill-rule:evenodd;stroke-width:0.11547;enable-background:new"
       id="rect974-6-5-5"
       width="2.3999984"
       height="0.19999987"
       x="507.11078"
       y="346.00003"
       rx="0"
       ry="0" />
    <path
       id="path1110"
       d="m 509.51211,346.99997 v -0.99995 h 1.1 1.1 l -0.002,0.84314 -0.002,0.84313 -0.0191,0.0481 c -0.0395,0.0996 -0.10801,0.17606 -0.19793,0.22092 -0.0937,0.0467 -0.0394,0.0444 -1.0536,0.0446 l -0.92528,8e-5 z"
       style="opacity:0.5;fill:#753390;fill-opacity:1;stroke-width:0.00231485" />
    <rect
       ry="0"
       rx="0"
       y="-509.71213"
       x="346.00003"
       height="0.19999987"
       width="2.3999755"
       id="rect974-6-5-6-2"
       style="display:inline;fill:#471d57;fill-rule:evenodd;stroke-width:0.115469;enable-background:new"
       transform="rotate(90)" />
    <rect
       ry="0"
       rx="0"
       y="-346.19998"
       x="-511.91077"
       height="0.19999987"
       width="2.3999984"
       id="rect974-6-5-6-7"
       style="display:inline;fill:#471d57;fill-rule:evenodd;stroke-width:0.11547;enable-background:new"
       transform="scale(-1)" />
    <g
       transform="matrix(0.0856662,0,0,0.08571404,499.57479,312.22868)"
       inkscape:label="system-file-manager"
       id="g14600-21-3-0-5"
       style="display:inline;opacity:1;fill:#2e3436;fill-opacity:1;enable-background:new">
      <rect
         style="fill:none;stroke:none"
         id="rect3620-8-8-0-6-3"
         width="16"
         height="16"
         x="122.0002"
         y="398"
         rx="0"
         ry="0" />
    </g>
  </g>
</svg>
