<?xml version="1.0" encoding="UTF-8" standalone="no"?>
<!-- Created with Inkscape (http://www.inkscape.org/) -->

<svg
   xmlns:dc="http://purl.org/dc/elements/1.1/"
   xmlns:cc="http://creativecommons.org/ns#"
   xmlns:rdf="http://www.w3.org/1999/02/22-rdf-syntax-ns#"
   xmlns:svg="http://www.w3.org/2000/svg"
   xmlns="http://www.w3.org/2000/svg"
   xmlns:sodipodi="http://sodipodi.sourceforge.net/DTD/sodipodi-0.dtd"
   xmlns:inkscape="http://www.inkscape.org/namespaces/inkscape"
   width="24"
   height="24"
   viewBox="0 0 6.3499999 6.3500002"
   version="1.1"
   id="svg8"
   inkscape:version="0.92.3 (2405546, 2018-03-11)"
   sodipodi:docname="preferences-color.svg">
  <defs
     id="defs2" />
  <sodipodi:namedview
     id="base"
     pagecolor="#ffffff"
     bordercolor="#666666"
     borderopacity="1.0"
     inkscape:pageopacity="0.0"
     inkscape:pageshadow="2"
     inkscape:zoom="15.839192"
     inkscape:cx="8.7443535"
     inkscape:cy="9.0596219"
     inkscape:document-units="mm"
     inkscape:current-layer="layer1"
     showgrid="true"
     units="px"
     inkscape:window-width="1920"
     inkscape:window-height="1149"
     inkscape:window-x="0"
     inkscape:window-y="27"
     inkscape:window-maximized="1">
    <inkscape:grid
       type="xygrid"
       id="grid877" />
  </sodipodi:namedview>
  <metadata
     id="metadata5">
    <rdf:RDF>
      <cc:Work
         rdf:about="">
        <dc:format>image/svg+xml</dc:format>
        <dc:type
           rdf:resource="http://purl.org/dc/dcmitype/StillImage" />
        <dc:title />
      </cc:Work>
    </rdf:RDF>
  </metadata>
  <g
     inkscape:label="Layer 1"
     inkscape:groupmode="layer"
     id="layer1"
     transform="translate(0,-290.64998)">
    <path
       id="circle819"
       style="opacity:1;fill:none;fill-opacity:1;fill-rule:nonzero;stroke:#000000;stroke-width:0.26458332;stroke-linecap:round;stroke-linejoin:round;stroke-miterlimit:4;stroke-dasharray:none;stroke-dashoffset:0;stroke-opacity:1"
       d="m 4.630208,293.03122 a 1.4552083,1.4552083 0 0 1 -1.4552083,1.4552 1.4552083,1.4552083 0 0 1 -1.4552083,-1.4552 1.4552083,1.4552083 0 0 1 1.4552083,-1.45521 1.4552083,1.4552083 0 0 1 1.4552083,1.45521 z m 1.0583334,1.58752 a 1.4552083,1.4552083 0 0 1 -1.4552083,1.45521 1.4552083,1.4552083 0 0 1 -1.4552083,-1.45521 1.4552083,1.4552083 0 0 1 1.4552083,-1.45521 1.4552083,1.4552083 0 0 1 1.4552083,1.45521 z m -2.1166665,0 a 1.4552083,1.4552083 0 0 1 -1.4552083,1.45521 1.4552083,1.4552083 0 0 1 -1.45520835,-1.45521 1.4552083,1.4552083 0 0 1 1.45520835,-1.45521 1.4552083,1.4552083 0 0 1 1.4552083,1.45521 z"
       inkscape:connector-curvature="0" />
    <path
       style="opacity:1;fill:#ef2929;fill-opacity:1;fill-rule:nonzero;stroke:none;stroke-width:0.26458332;stroke-linecap:round;stroke-linejoin:round;stroke-miterlimit:4;stroke-dasharray:none;stroke-dashoffset:0;stroke-opacity:1"
       d="M 1.9527964,295.92804 C 1.7314491,295.89254 1.5425371,295.821 1.3793691,295.7109 1.081362,295.50981 0.87770321,295.1915 0.81597867,294.83037 c -0.015131,-0.0885 -0.0170463,-0.12486 -0.0131702,-0.24976 0.005115,-0.16483 0.0208862,-0.25471 0.0691093,-0.39388 0.0640217,-0.18476 0.16999663,-0.35322 0.31250553,-0.49677 0.1025539,-0.10331 0.2058339,-0.17844 0.3381355,-0.24599 l 0.1001257,-0.0511 0.014872,0.0531 c 0.1325116,0.47289 0.4702731,0.86094 0.91189,1.04766 l 0.094435,0.0399 0.00459,0.15092 c 0.00534,0.17567 0.026178,0.29125 0.081455,0.45187 0.042083,0.12228 0.1329563,0.30139 0.2006777,0.39553 0.027722,0.0385 0.048469,0.0751 0.046105,0.0813 -0.00701,0.0183 -0.1452724,0.11658 -0.2262809,0.16091 -0.1359554,0.0744 -0.3023424,0.13009 -0.4499079,0.15061 -0.060845,0.008 -0.3015074,0.0108 -0.3477246,0.003 z"
       id="path844"
       inkscape:connector-curvature="0" />
    <path
       style="opacity:0.5;fill:#73d216;fill-opacity:1;fill-rule:nonzero;stroke:none;stroke-width:0.26458332;stroke-linecap:round;stroke-linejoin:round;stroke-miterlimit:4;stroke-dasharray:none;stroke-dashoffset:0;stroke-opacity:1"
       d="m 3.1366237,295.35027 c -0.083384,-0.1254 -0.153848,-0.2899 -0.1883645,-0.43975 -0.018034,-0.0783 -0.034963,-0.21095 -0.034963,-0.27397 v -0.0366 l 0.039673,0.007 c 0.085623,0.0144 0.2675737,0.0182 0.3730633,0.008 0.058404,-0.006 0.1073243,-0.009 0.108711,-0.007 0.00138,0.002 -6.615e-4,0.0486 -0.00454,0.10454 -0.015576,0.22421 -0.087977,0.44072 -0.2098297,0.6275 l -0.045203,0.0693 z"
       id="path846"
       inkscape:connector-curvature="0" />
    <path
       style="opacity:0.5;fill:#fce94f;fill-opacity:1;fill-rule:nonzero;stroke:none;stroke-width:0.26458332;stroke-linecap:round;stroke-linejoin:round;stroke-miterlimit:4;stroke-dasharray:none;stroke-dashoffset:0;stroke-opacity:1"
       d="m 2.5875483,294.21085 c -0.345067,-0.17304 -0.5932646,-0.48142 -0.6919381,-0.8597 l -0.00807,-0.0309 0.038891,-0.007 c 0.02139,-0.004 0.1140602,-0.006 0.2059341,-0.006 0.1521539,4.4e-4 0.1759201,0.003 0.2666284,0.0237 0.2030267,0.0473 0.384287,0.13324 0.5328786,0.2526 l 0.056164,0.0451 -0.036275,0.0478 c -0.089638,0.11821 -0.176172,0.28651 -0.2275306,0.44253 -0.020045,0.0609 -0.036445,0.11633 -0.036445,0.12319 0,0.007 -0.00282,0.0125 -0.00626,0.0125 -0.00344,-10e-6 -0.045734,-0.0198 -0.093975,-0.044 z"
       id="path848"
       inkscape:connector-curvature="0" />
    <path
       style="opacity:1;fill:#fce94f;fill-opacity:1;fill-rule:nonzero;stroke:none;stroke-width:0.26458332;stroke-linecap:round;stroke-linejoin:round;stroke-miterlimit:4;stroke-dasharray:none;stroke-dashoffset:0;stroke-opacity:1"
       d="m 3.1548231,293.41465 c -0.0061,-0.007 -0.031926,-0.0294 -0.0574,-0.0489 -0.3058038,-0.2347 -0.6760809,-0.353 -1.0485769,-0.33501 -0.064312,0.003 -0.1349328,0.009 -0.1569356,0.0123 l -0.040005,0.007 0.00505,-0.0718 c 0.0073,-0.10392 0.019596,-0.18778 0.038686,-0.2639 0.1233225,-0.49176 0.5079786,-0.86224 1.0112238,-0.97398 0.09859,-0.0219 0.329165,-0.0305 0.4369631,-0.0163 0.2875111,0.0379 0.5568524,0.17102 0.7630176,0.37719 0.2280647,0.22806 0.3678671,0.53928 0.3827512,0.85205 l 0.00462,0.097 -0.040849,-0.007 c -0.022466,-0.004 -0.093468,-0.009 -0.1577795,-0.0125 -0.3776461,-0.0181 -0.7860697,0.11859 -1.073195,0.35907 -0.025233,0.0211 -0.048263,0.0384 -0.051178,0.0384 -0.00292,0 -0.01029,-0.006 -0.016386,-0.0134 z"
       id="path850"
       inkscape:connector-curvature="0" />
    <path
       style="opacity:0.5;fill:#73d216;fill-opacity:1;fill-rule:nonzero;stroke:none;stroke-width:0.26458332;stroke-linecap:round;stroke-linejoin:round;stroke-miterlimit:4;stroke-dasharray:none;stroke-dashoffset:0;stroke-opacity:1"
       d="m 3.6564265,294.21908 c -0.047762,-0.1858 -0.1371034,-0.37544 -0.2517822,-0.53444 l -0.040804,-0.0566 0.023204,-0.0209 c 0.046657,-0.0419 0.1980925,-0.13892 0.2732461,-0.17499 0.093773,-0.045 0.2026748,-0.0822 0.3115715,-0.10635 0.068479,-0.0152 0.1088678,-0.0182 0.2527242,-0.0185 0.1882105,-4.8e-4 0.2339302,0.005 0.2337379,0.0271 -2.453e-4,0.0284 -0.066348,0.21015 -0.1028912,0.28292 -0.1267796,0.25243 -0.3372165,0.4644 -0.5844328,0.5887 -0.1081402,0.0544 -0.1040651,0.0539 -0.1145746,0.013 z"
       id="path852"
       inkscape:connector-curvature="0" />
    <path
       style="opacity:1;fill:#73d216;fill-opacity:1;fill-rule:nonzero;stroke:none;stroke-width:0.26458332;stroke-linecap:round;stroke-linejoin:round;stroke-miterlimit:4;stroke-dasharray:none;stroke-dashoffset:0;stroke-opacity:1"
       d="m 4.0700721,295.92842 c -0.2395561,-0.0359 -0.4617381,-0.12734 -0.6343597,-0.2611 -0.027339,-0.0212 -0.055057,-0.0426 -0.061595,-0.0475 -0.00984,-0.007 -0.00524,-0.018 0.026708,-0.0614 0.1937745,-0.26322 0.3059274,-0.60463 0.3059274,-0.93128 v -0.0947 l 0.048025,-0.0191 c 0.1626759,-0.0647 0.3435247,-0.17536 0.4757547,-0.29122 0.2198357,-0.19263 0.402205,-0.48451 0.4752938,-0.76071 0.0079,-0.0299 0.01655,-0.0568 0.019217,-0.06 0.00267,-0.003 0.032228,0.007 0.065688,0.0226 0.326494,0.15173 0.5819471,0.44169 0.6950784,0.78898 0.049494,0.15193 0.06174,0.23214 0.061865,0.4052 8.79e-5,0.12165 -0.00339,0.16788 -0.01823,0.24224 -0.05481,0.27467 -0.1716698,0.49307 -0.368758,0.68915 -0.1577279,0.15693 -0.3080599,0.25063 -0.5092017,0.31738 -0.1562357,0.0519 -0.2033341,0.0594 -0.3893137,0.0625 -0.091874,0.002 -0.1783189,10e-4 -0.1921,-0.001 z"
       id="path856"
       inkscape:connector-curvature="0" />
    <path
       inkscape:connector-curvature="0"
       id="path820"
       d="m 2.5875483,294.21085 c -0.345067,-0.17304 -0.5932646,-0.48142 -0.6919381,-0.8597 l -0.00807,-0.0309 0.038891,-0.007 c 0.02139,-0.004 0.1140602,-0.006 0.2059341,-0.006 0.1521539,4.4e-4 0.1759201,0.003 0.2666284,0.0237 0.2030267,0.0473 0.384287,0.13324 0.5328786,0.2526 l 0.056164,0.0451 -0.036275,0.0478 c -0.089638,0.11821 -0.176172,0.28651 -0.2275306,0.44253 -0.020045,0.0609 -0.036445,0.11633 -0.036445,0.12319 0,0.007 -0.00282,0.0125 -0.00626,0.0125 -0.00344,-10e-6 -0.045734,-0.0198 -0.093975,-0.044 z"
       style="opacity:0.5;fill:#ef2929;fill-opacity:1;fill-rule:nonzero;stroke:none;stroke-width:0.26458332;stroke-linecap:round;stroke-linejoin:round;stroke-miterlimit:4;stroke-dasharray:none;stroke-dashoffset:0;stroke-opacity:1" />
    <path
       inkscape:connector-curvature="0"
       id="path822"
       d="m 3.6564265,294.21908 c -0.047762,-0.1858 -0.1371034,-0.37544 -0.2517822,-0.53444 l -0.040804,-0.0566 0.023204,-0.0209 c 0.046657,-0.0419 0.1980925,-0.13892 0.2732461,-0.17499 0.093773,-0.045 0.2026748,-0.0822 0.3115715,-0.10635 0.068479,-0.0152 0.1088678,-0.0182 0.2527242,-0.0185 0.1882105,-4.8e-4 0.2339302,0.005 0.2337379,0.0271 -2.453e-4,0.0284 -0.066348,0.21015 -0.1028912,0.28292 -0.1267796,0.25243 -0.3372165,0.4644 -0.5844328,0.5887 -0.1081402,0.0544 -0.1040651,0.0539 -0.1145746,0.013 z"
       style="opacity:0.5;fill:#fce94f;fill-opacity:1;fill-rule:nonzero;stroke:none;stroke-width:0.26458332;stroke-linecap:round;stroke-linejoin:round;stroke-miterlimit:4;stroke-dasharray:none;stroke-dashoffset:0;stroke-opacity:1" />
    <path
       inkscape:connector-curvature="0"
       id="path824"
       d="m 3.1366237,295.35027 c -0.083384,-0.1254 -0.153848,-0.2899 -0.1883645,-0.43975 -0.018034,-0.0783 -0.034963,-0.21095 -0.034963,-0.27397 v -0.0366 l 0.039673,0.007 c 0.085623,0.0144 0.2675737,0.0182 0.3730633,0.008 0.058404,-0.006 0.1073243,-0.009 0.108711,-0.007 0.00138,0.002 -6.615e-4,0.0486 -0.00454,0.10454 -0.015576,0.22421 -0.087977,0.44072 -0.2098297,0.6275 l -0.045203,0.0693 z"
       style="opacity:0.5;fill:#ef2929;fill-opacity:1;fill-rule:nonzero;stroke:none;stroke-width:0.26458332;stroke-linecap:round;stroke-linejoin:round;stroke-miterlimit:4;stroke-dasharray:none;stroke-dashoffset:0;stroke-opacity:1" />
  </g>
</svg>
