<?xml version="1.0" encoding="UTF-8" standalone="no"?>
<!-- Created with Inkscape (http://www.inkscape.org/) -->

<svg
   xmlns:dc="http://purl.org/dc/elements/1.1/"
   xmlns:cc="http://creativecommons.org/ns#"
   xmlns:rdf="http://www.w3.org/1999/02/22-rdf-syntax-ns#"
   xmlns:svg="http://www.w3.org/2000/svg"
   xmlns="http://www.w3.org/2000/svg"
   xmlns:sodipodi="http://sodipodi.sourceforge.net/DTD/sodipodi-0.dtd"
   xmlns:inkscape="http://www.inkscape.org/namespaces/inkscape"
   width="16"
   height="16"
   viewBox="0 0 4.2333333 4.2333333"
   version="1.1"
   id="svg1260"
   inkscape:version="0.92.2 5c3e80d, 2017-08-06"
   sodipodi:docname="org.xfce.settings.color.svg"
   inkscape:export-filename="/home/mau/GIT/xfce4-settings/icons/16x16/org.xfce.settings.color.svg.png"
   inkscape:export-xdpi="96"
   inkscape:export-ydpi="96">
  <defs
     id="defs1254" />
  <sodipodi:namedview
     id="base"
     pagecolor="#ffffff"
     bordercolor="#666666"
     borderopacity="1.0"
     inkscape:pageopacity="0.0"
     inkscape:pageshadow="2"
     inkscape:zoom="22.627417"
     inkscape:cx="-8.8836458"
     inkscape:cy="4.7722005"
     inkscape:document-units="mm"
     inkscape:current-layer="layer1"
     showgrid="true"
     units="px"
     inkscape:window-width="1920"
     inkscape:window-height="1023"
     inkscape:window-x="0"
     inkscape:window-y="25"
     inkscape:window-maximized="1">
    <inkscape:grid
       type="xygrid"
       id="grid825"
       dotted="false"
       empspacing="4" />
  </sodipodi:namedview>
  <metadata
     id="metadata1257">
    <rdf:RDF>
      <cc:Work
         rdf:about="">
        <dc:format>image/svg+xml</dc:format>
        <dc:type
           rdf:resource="http://purl.org/dc/dcmitype/StillImage" />
        <dc:title />
      </cc:Work>
    </rdf:RDF>
  </metadata>
  <g
     inkscape:label="Layer 1"
     inkscape:groupmode="layer"
     id="layer1"
     transform="translate(0,-292.76666)">
    <ellipse
       cy="294.05981"
       cx="2.1166666"
       id="circle1879"
       style="opacity:1;vector-effect:none;fill:#006888;fill-opacity:1;fill-rule:nonzero;stroke:none;stroke-width:0.0582018;stroke-linecap:square;stroke-linejoin:round;stroke-miterlimit:4;stroke-dasharray:none;stroke-dashoffset:0;stroke-opacity:1;paint-order:normal"
       rx="1.2095239"
       ry="1.1910485" />
    <circle
       style="opacity:1;vector-effect:none;fill:#e6461d;fill-opacity:1;fill-rule:nonzero;stroke:#c02700;stroke-width:0.26357698;stroke-linecap:square;stroke-linejoin:round;stroke-miterlimit:4;stroke-dasharray:none;stroke-dashoffset:0;stroke-opacity:1;paint-order:normal"
       id="path1251"
       cx="2.1166666"
       cy="294.08957"
       r="1.1911281" />
    <circle
       style="opacity:1;vector-effect:none;fill:#00aade;fill-opacity:1;fill-rule:nonzero;stroke:#006888;stroke-width:0.26448274;stroke-linecap:square;stroke-linejoin:round;stroke-miterlimit:4;stroke-dasharray:none;stroke-dashoffset:0;stroke-opacity:1;paint-order:normal"
       id="circle1255"
       cx="2.9104166"
       cy="295.67706"
       r="1.1906753" />
    <circle
       cy="295.67709"
       cx="1.3229166"
       id="circle1253"
       style="opacity:1;vector-effect:none;fill:#6acc0a;fill-opacity:1;fill-rule:nonzero;stroke:#52a302;stroke-width:0.26357695;stroke-linecap:square;stroke-linejoin:round;stroke-miterlimit:4;stroke-dasharray:none;stroke-dashoffset:0;stroke-opacity:1;paint-order:normal"
       r="1.1911281" />
    <path
       style="opacity:1;vector-effect:none;fill:#006888;fill-opacity:1;fill-rule:nonzero;stroke:none;stroke-width:0.29385731;stroke-linecap:square;stroke-linejoin:round;stroke-miterlimit:4;stroke-dasharray:none;stroke-dashoffset:0;stroke-opacity:1;paint-order:normal"
       d="m 2.1166667,294.61874 a 1.3229166,1.3229166 0 0 0 -0.5286499,1.05575 1.3229166,1.3229166 0 0 0 0.5291666,1.05627 1.3229166,1.3229166 0 0 0 0.5286499,-1.05575 1.3229166,1.3229166 0 0 0 -0.5291666,-1.05627 z"
       id="circle1255-3"
       inkscape:connector-curvature="0" />
    <path
       style="opacity:1;vector-effect:none;fill:#dcb102;fill-opacity:1;fill-rule:nonzero;stroke:none;stroke-width:0.2927396;stroke-linecap:square;stroke-linejoin:round;stroke-miterlimit:4;stroke-dasharray:none;stroke-dashoffset:0;stroke-opacity:1;paint-order:normal"
       d="m 1.3229167,294.35416 a 1.3229166,1.3229166 0 0 0 -0.48059083,0.0904 1.3229166,1.3229166 0 0 0 1.27434083,0.9679 1.3229166,1.3229166 0 0 0 0.4805908,-0.0904 1.3229166,1.3229166 0 0 0 -1.2743408,-0.9679 z"
       id="path1251-7"
       inkscape:connector-curvature="0" />
    <path
       style="opacity:1;vector-effect:none;fill:#753390;fill-opacity:1;fill-rule:nonzero;stroke:none;stroke-width:0.2927396;stroke-linecap:square;stroke-linejoin:round;stroke-miterlimit:4;stroke-dasharray:none;stroke-dashoffset:0;stroke-opacity:1;paint-order:normal"
       d="m 2.9104167,294.35416 a 1.3229166,1.3229166 0 0 0 -1.2733073,0.9679 1.3229166,1.3229166 0 0 0 0.4790405,0.0909 1.3229166,1.3229166 0 0 0 1.2733073,-0.9679 1.3229166,1.3229166 0 0 0 -0.4790405,-0.091 z"
       id="path1251-3"
       inkscape:connector-curvature="0" />
    <path
       style="opacity:1;vector-effect:none;fill:#f1f3f5;fill-opacity:1;fill-rule:nonzero;stroke:none;stroke-width:0.29385731;stroke-linecap:square;stroke-linejoin:round;stroke-miterlimit:4;stroke-dasharray:none;stroke-dashoffset:0;stroke-opacity:1;paint-order:normal"
       d="m 2.1166667,294.61874 a 1.3229166,1.3229166 0 0 0 -0.039274,0.0294 1.3229166,1.3229166 0 0 0 -0.034106,0.0289 1.3229166,1.3229166 0 0 0 -0.064595,0.0599 1.3229166,1.3229166 0 0 0 -0.029456,0.03 1.3229166,1.3229166 0 0 0 -0.056327,0.0641 1.3229166,1.3229166 0 0 0 -0.032556,0.0408 1.3229166,1.3229166 0 0 0 -0.050643,0.0713 1.3229166,1.3229166 0 0 0 -0.01912,0.0289 1.3229166,1.3229166 0 0 0 -0.05116,0.0894 1.3229166,1.3229166 0 0 0 -0.013436,0.0258 1.3229166,1.3229166 0 0 0 -0.039274,0.0873 1.3229166,1.3229166 0 0 0 -0.014469,0.0372 1.3229166,1.3229166 0 0 0 -0.029456,0.0894 1.3229166,1.3229166 0 0 0 -0.00517,0.0176 1.3229166,1.3229166 0 0 0 0.031523,0.0114 1.3229166,1.3229166 0 0 0 0.076998,0.0258 1.3229166,1.3229166 0 0 0 0.066663,0.0171 1.3229166,1.3229166 0 0 0 0.055294,0.0124 1.3229166,1.3229166 0 0 0 0.086816,0.0129 1.3229166,1.3229166 0 0 0 0.042891,0.005 1.3229166,1.3229166 0 0 0 0.1183388,0.006 1.3229166,1.3229166 0 0 0 0.2428792,-0.0232 1.3229166,1.3229166 0 0 0 0.1472778,-0.0357 1.3229166,1.3229166 0 0 0 0.088367,-0.0326 1.3229166,1.3229166 0 0 0 -0.00517,-0.0207 1.3229166,1.3229166 0 0 0 -0.018087,-0.0537 1.3229166,1.3229166 0 0 0 -0.024805,-0.0687 1.3229166,1.3229166 0 0 0 -0.029972,-0.0667 1.3229166,1.3229166 0 0 0 -0.023254,-0.0475 1.3229166,1.3229166 0 0 0 -0.039791,-0.0703 1.3229166,1.3229166 0 0 0 -0.028422,-0.0455 1.3229166,1.3229166 0 0 0 -0.041341,-0.0579 1.3229166,1.3229166 0 0 0 -0.040824,-0.0532 1.3229166,1.3229166 0 0 0 -0.038241,-0.0434 1.3229166,1.3229166 0 0 0 -0.048059,-0.0517 1.3229166,1.3229166 0 0 0 -0.055811,-0.0517 1.3229166,1.3229166 0 0 0 -0.039791,-0.0346 1.3229166,1.3229166 0 0 0 -0.044442,-0.0341 z"
       id="circle1255-3-6"
       inkscape:connector-curvature="0" />
  </g>
</svg>
