<?xml version="1.0" encoding="UTF-8" standalone="no"?>
<!-- Created with Inkscape (http://www.inkscape.org/) -->

<svg
   xmlns:dc="http://purl.org/dc/elements/1.1/"
   xmlns:cc="http://creativecommons.org/ns#"
   xmlns:rdf="http://www.w3.org/1999/02/22-rdf-syntax-ns#"
   xmlns:svg="http://www.w3.org/2000/svg"
   xmlns="http://www.w3.org/2000/svg"
   xmlns:sodipodi="http://sodipodi.sourceforge.net/DTD/sodipodi-0.dtd"
   xmlns:inkscape="http://www.inkscape.org/namespaces/inkscape"
   width="64"
   height="64"
   viewBox="0 0 16.933333 16.933333"
   version="1.1"
   id="svg8"
   inkscape:version="0.92.3 (2405546, 2018-03-11)"
   sodipodi:docname="xfce4-color-settings.svg"
   inkscape:export-filename="/home/ochosi/Nerdstuff/xfce/xfce4-settings/icons/64x64/xfce4-color-settings.png"
   inkscape:export-xdpi="96"
   inkscape:export-ydpi="96">
  <defs
     id="defs2" />
  <sodipodi:namedview
     id="base"
     pagecolor="#ffffff"
     bordercolor="#666666"
     borderopacity="1.0"
     inkscape:pageopacity="0.0"
     inkscape:pageshadow="2"
     inkscape:zoom="11.2"
     inkscape:cx="23.936888"
     inkscape:cy="24.85279"
     inkscape:document-units="mm"
     inkscape:current-layer="layer1"
     showgrid="true"
     units="px"
     inkscape:window-width="1920"
     inkscape:window-height="1149"
     inkscape:window-x="0"
     inkscape:window-y="27"
     inkscape:window-maximized="1">
    <inkscape:grid
       type="xygrid"
       id="grid877" />
  </sodipodi:namedview>
  <metadata
     id="metadata5">
    <rdf:RDF>
      <cc:Work
         rdf:about="">
        <dc:format>image/svg+xml</dc:format>
        <dc:type
           rdf:resource="http://purl.org/dc/dcmitype/StillImage" />
        <dc:title />
      </cc:Work>
    </rdf:RDF>
  </metadata>
  <g
     inkscape:label="Layer 1"
     inkscape:groupmode="layer"
     id="layer1"
     transform="translate(0,-280.06665)">
    <path
       style="opacity:1;fill:#fce94f;fill-opacity:1;fill-rule:nonzero;stroke:#000000;stroke-width:0.26458332;stroke-linecap:round;stroke-linejoin:round;stroke-miterlimit:4;stroke-dasharray:none;stroke-dashoffset:0;stroke-opacity:1"
       d="m 8.4666666,281.53961 a 4.1010417,4.1173189 0 0 0 -4.1010417,4.11732 4.1010417,4.1173189 0 0 0 0.1379088,1.0496 4.1010417,4.1173189 0 0 1 1.1102344,-0.15453 4.1010417,4.1173189 0 0 1 2.6752889,1.00205 4.1010417,4.1173189 0 0 1 2.673896,-1.00205 4.1010417,4.1173189 0 0 1 1.436201,0.26641 4.1010417,4.1173189 0 0 0 0.168555,-1.16148 4.1010417,4.1173189 0 0 0 -4.1010424,-4.11732 z"
       id="circle844"
       inkscape:connector-curvature="0" />
    <path
       style="opacity:1;fill:#ef2929;fill-opacity:1;fill-rule:nonzero;stroke:#000000;stroke-width:0.26458332;stroke-linecap:round;stroke-linejoin:round;stroke-miterlimit:4;stroke-dasharray:none;stroke-dashoffset:0;stroke-opacity:1"
       d="m 5.5849386,286.53485 a 4.1103405,4.1010417 0 0 1 0.4607377,0.0265 4.1103405,4.1010417 0 0 0 -0.4607377,-0.0265 z m 0,0 a 4.1103405,4.1010417 0 0 0 -0.8698174,0.0947 4.1103405,4.1010417 0 0 1 0.8698174,-0.0947 z m -1.1120537,0.15671 a 4.1103405,4.1010417 0 0 0 -2.9982868,3.94433 4.1103405,4.1010417 0 0 0 4.1103405,4.10104 4.1103405,4.1010417 0 0 0 2.6785627,-0.9967 4.1103405,4.1010417 0 0 1 -1.4275896,-3.10434 4.1103405,4.1010417 0 0 1 0.1710317,-1.1562 4.1103405,4.1010417 0 0 1 -2.5340585,-2.78813 z"
       id="circle851"
       inkscape:connector-curvature="0" />
    <path
       style="opacity:1;fill:#73d216;fill-opacity:1;fill-rule:nonzero;stroke:#000000;stroke-width:0.26458332;stroke-linecap:round;stroke-linejoin:round;stroke-miterlimit:4;stroke-dasharray:none;stroke-dashoffset:0;stroke-opacity:1"
       d="m 11.183833,286.56291 a 4.1149071,4.1056311 0 0 1 0.346636,0.0383 4.1149071,4.1056311 0 0 0 -0.346636,-0.0383 z m 0.403244,0.0453 a 4.1149071,4.1056311 0 0 1 0.788319,0.21058 4.1149071,4.1056311 0 0 1 -2.8310986,2.78985 4.1149071,4.1056311 0 0 1 0.138375,1.05081 4.1149071,4.1056311 0 0 1 -1.4291756,3.10782 4.1149071,4.1056311 0 0 0 2.6815402,0.99781 4.1149071,4.1056311 0 0 0 4.114908,-4.10563 4.1149071,4.1056311 0 0 0 -3.462868,-4.05124 z m -3.3098186,0.91972 a 4.1149071,4.1056311 0 0 0 -0.027956,0.0237 4.1149071,4.1056311 0 0 1 0.0014,0.001 4.1149071,4.1056311 0 0 1 0.026557,-0.0251 z"
       id="circle856"
       inkscape:connector-curvature="0" />
    <path
       style="opacity:1;fill:#ef2929;fill-opacity:0.48235294;fill-rule:nonzero;stroke:#000000;stroke-width:0.26458332;stroke-linecap:round;stroke-linejoin:round;stroke-miterlimit:4;stroke-dasharray:none;stroke-dashoffset:0;stroke-opacity:1"
       d="m 5.6047248,286.56728 c -0.3803602,2.5e-4 -0.7588842,0.0515 -1.1249688,0.15218 0.3451472,1.27024 1.29975,2.2985 2.5611741,2.7588 0.2263031,-0.74843 0.669112,-1.41724 1.2752941,-1.9262 -0.7537607,-0.6346 -1.7159547,-0.98407 -2.7114994,-0.98478 z m 1.4531434,2.91717 z"
       id="circle864"
       inkscape:connector-curvature="0"
       sodipodi:nodetypes="ccccccc" />
    <path
       id="path895"
       d="m 10.93687,286.57469 c -0.9797167,0.001 -1.9264398,0.35371 -2.6682165,0.99296 0.6248862,0.53842 1.0722342,1.25291 1.2833579,2.04976 1.3551596,-0.38074 2.4193636,-1.43027 2.8176936,-2.77884 -0.457969,-0.17283 -0.943268,-0.2622 -1.432835,-0.26388 z"
       style="opacity:1;fill:#73d216;fill-opacity:0.48235294;fill-rule:nonzero;stroke:#000000;stroke-width:0.26458329;stroke-linecap:round;stroke-linejoin:round;stroke-miterlimit:4;stroke-dasharray:none;stroke-dashoffset:0;stroke-opacity:1"
       inkscape:connector-curvature="0"
       sodipodi:nodetypes="ccccc" />
    <path
       sodipodi:nodetypes="ccccccccc"
       style="opacity:1;fill:#73d216;fill-opacity:0.48235294;fill-rule:nonzero;stroke:#000000;stroke-width:0.26458329;stroke-linecap:round;stroke-linejoin:round;stroke-miterlimit:4;stroke-dasharray:none;stroke-dashoffset:0;stroke-opacity:1"
       d="m 9.5307893,289.52831 z m -2.517903,-0.0566 c -0.1119201,0.3765 -0.1696792,0.7672 -0.1715173,1.16019 7.931e-4,1.19678 0.5191827,2.33392 1.4200524,3.11504 0.9024198,-0.78033 1.422381,-1.91759 1.4242185,-3.11504 -0.00198,-0.3541 -0.049357,-0.70647 -0.1409638,-1.04836 -0.3591105,0.10167 -0.7303566,0.1534 -1.1034048,0.15375 -0.488061,-0.002 -0.971822,-0.092 -1.428385,-0.26558 z"
       id="path831"
       inkscape:connector-curvature="0" />
    <path
       sodipodi:nodetypes="ccccc"
       inkscape:connector-curvature="0"
       style="opacity:1;fill:#fce94f;fill-opacity:0.48235294;fill-rule:nonzero;stroke:#000000;stroke-width:0.26458329;stroke-linecap:round;stroke-linejoin:round;stroke-miterlimit:4;stroke-dasharray:none;stroke-dashoffset:0;stroke-opacity:1"
       d="m 10.93687,286.57469 c -0.9797167,0.001 -1.9264394,0.35371 -2.6682168,0.99296 0.6248867,0.53842 1.0722344,1.25291 1.2833581,2.04976 1.3551597,-0.38074 2.4193637,-1.43027 2.8176937,-2.77884 -0.457969,-0.17283 -0.943268,-0.2622 -1.432835,-0.26388 z"
       id="path825" />
    <path
       inkscape:connector-curvature="0"
       id="path827"
       d="m 9.5307893,289.52831 z m -2.517903,-0.0566 c -0.1119201,0.3765 -0.1696792,0.7672 -0.1715173,1.16019 7.931e-4,1.19678 0.5191827,2.33392 1.4200524,3.11504 0.9024198,-0.78033 1.422381,-1.91759 1.4242185,-3.11504 -0.00198,-0.3541 -0.049357,-0.70647 -0.1409638,-1.04836 -0.3591105,0.10167 -0.7303566,0.1534 -1.1034048,0.15375 -0.488061,-0.002 -0.971822,-0.092 -1.428385,-0.26558 z"
       style="opacity:1;fill:#ef2929;fill-opacity:0.48235294;fill-rule:nonzero;stroke:#000000;stroke-width:0.26458329;stroke-linecap:round;stroke-linejoin:round;stroke-miterlimit:4;stroke-dasharray:none;stroke-dashoffset:0;stroke-opacity:1"
       sodipodi:nodetypes="ccccccccc" />
    <path
       sodipodi:nodetypes="ccccccc"
       inkscape:connector-curvature="0"
       id="path829"
       d="m 5.6047248,286.56728 c -0.3803602,2.5e-4 -0.7588842,0.0515 -1.1249688,0.15218 0.3451472,1.27024 1.29975,2.2985 2.5611741,2.7588 0.2263031,-0.74843 0.669112,-1.41724 1.2752941,-1.9262 -0.7537607,-0.6346 -1.7159547,-0.98407 -2.7114994,-0.98478 z m 1.4531434,2.91717 z"
       style="opacity:1;fill:#fce94f;fill-opacity:0.48235294;fill-rule:nonzero;stroke:#000000;stroke-width:0.26458332;stroke-linecap:round;stroke-linejoin:round;stroke-miterlimit:4;stroke-dasharray:none;stroke-dashoffset:0;stroke-opacity:1" />
  </g>
</svg>
