<?xml version="1.0" encoding="UTF-8" standalone="no"?>
<svg
   xmlns:dc="http://purl.org/dc/elements/1.1/"
   xmlns:cc="http://creativecommons.org/ns#"
   xmlns:rdf="http://www.w3.org/1999/02/22-rdf-syntax-ns#"
   xmlns:svg="http://www.w3.org/2000/svg"
   xmlns="http://www.w3.org/2000/svg"
   xmlns:sodipodi="http://sodipodi.sourceforge.net/DTD/sodipodi-0.dtd"
   xmlns:inkscape="http://www.inkscape.org/namespaces/inkscape"
   inkscape:version="1.0 (4035a4fb49, 2020-05-01)"
   sodipodi:docname="org.xfce.settings.default-applications.svg"
   width="32"
   height="32"
   id="svg11300"
   version="1.0"
   style="display:inline;enable-background:new"
   viewBox="0 0 32 32"
   inkscape:export-filename="/home/maug/GIT/xfce4-settings/icons/32x32/org.xfce.settings.default-applications.png"
   inkscape:export-xdpi="96"
   inkscape:export-ydpi="96">
  <sodipodi:namedview
     inkscape:document-rotation="0"
     inkscape:pagecheckerboard="false"
     inkscape:lockguides="true"
     showguides="false"
     inkscape:current-layer="g3547"
     inkscape:window-maximized="1"
     inkscape:window-y="25"
     inkscape:window-x="0"
     inkscape:cy="18.199873"
     inkscape:cx="3.5379391"
     inkscape:zoom="16"
     showgrid="true"
     id="namedview35"
     inkscape:window-height="1031"
     inkscape:window-width="1920"
     inkscape:pageshadow="2"
     inkscape:pageopacity="0"
     guidetolerance="10"
     gridtolerance="10"
     objecttolerance="10"
     borderopacity="1"
     bordercolor="#666666"
     pagecolor="#ffffff">
    <inkscape:grid
       empspacing="4"
       id="grid842"
       type="xygrid" />
  </sodipodi:namedview>
  <title
     id="title4162">Adwaita Icon Template</title>
  <defs
     id="defs3" />
  <metadata
     id="metadata4">
    <rdf:RDF>
      <cc:Work
         rdf:about="">
        <dc:format>image/svg+xml</dc:format>
        <dc:type
           rdf:resource="http://purl.org/dc/dcmitype/StillImage" />
        <dc:creator>
          <cc:Agent>
            <dc:title>GNOME Design Team</dc:title>
          </cc:Agent>
        </dc:creator>
        <dc:source />
        <cc:license
           rdf:resource="http://creativecommons.org/licenses/by-sa/4.0/" />
        <dc:title>Adwaita Icon Template</dc:title>
        <dc:subject>
          <rdf:Bag />
        </dc:subject>
        <dc:date />
        <dc:rights>
          <cc:Agent>
            <dc:title />
          </cc:Agent>
        </dc:rights>
        <dc:publisher>
          <cc:Agent>
            <dc:title />
          </cc:Agent>
        </dc:publisher>
        <dc:identifier />
        <dc:relation />
        <dc:language />
        <dc:coverage />
        <dc:description />
        <dc:contributor>
          <cc:Agent>
            <dc:title />
          </cc:Agent>
        </dc:contributor>
      </cc:Work>
      <cc:License
         rdf:about="http://creativecommons.org/licenses/by-sa/4.0/">
        <cc:permits
           rdf:resource="http://creativecommons.org/ns#Reproduction" />
        <cc:permits
           rdf:resource="http://creativecommons.org/ns#Distribution" />
        <cc:requires
           rdf:resource="http://creativecommons.org/ns#Notice" />
        <cc:requires
           rdf:resource="http://creativecommons.org/ns#Attribution" />
        <cc:permits
           rdf:resource="http://creativecommons.org/ns#DerivativeWorks" />
        <cc:requires
           rdf:resource="http://creativecommons.org/ns#ShareAlike" />
      </cc:License>
    </rdf:RDF>
  </metadata>
  <g
     inkscape:label="emoji-symbols-alt"
     transform="matrix(5.0000031,0,0,5.0000031,-2535.5554,-1718.0011)"
     id="g3547"
     style="display:inline;enable-background:new">
    <rect
       style="display:inline;opacity:1;fill:#471d57;fill-opacity:1;stroke:none;stroke-width:0.0131154;stroke-linecap:butt;stroke-linejoin:miter;stroke-miterlimit:4;stroke-dasharray:none;stroke-dashoffset:0;stroke-opacity:1;marker:none;marker-start:none;marker-mid:none;marker-end:none;paint-order:normal;enable-background:new"
       id="rect838"
       width="5.5999966"
       height="5.3999968"
       x="507.51077"
       y="344.20001"
       rx="0.43076906"
       ry="0.43199974" />
    <path
       style="fill:#003445;stroke-width:0.016064"
       d="M 3.8768172,28.909949 C 3.2461052,28.757287 2.6653845,28.320997 2.3299117,27.747774 2.2536615,27.617485 2.1447644,27.32903 2.0879181,27.106764 1.9881495,26.716672 1.9845612,26.534365 1.9845612,21.855533 v -4.84711 H 8.4928257 15.00109 v 5.991736 5.991735 l -5.4106403,-0.0043 c -4.4859936,-0.0036 -5.4624201,-0.01684 -5.7136325,-0.07764 z"
       id="path1049"
       transform="matrix(0.19999988,0,0,0.19999988,507.11077,343.60001)" />
    <g
       style="display:inline;stroke-width:2.45822;enable-background:new"
       transform="matrix(0.05517238,0,0,0.05423984,506.77973,347.66784)"
       id="g831" />
    <ellipse
       cy="347.70001"
       cx="-509.41077"
       id="circle1153-9"
       style="display:inline;opacity:1;vector-effect:none;fill:#d2d8dc;fill-opacity:1;stroke:none;stroke-width:0.0407339;stroke-linecap:square;stroke-linejoin:round;stroke-miterlimit:4;stroke-dasharray:none;stroke-dashoffset:0;stroke-opacity:1;enable-background:new"
       transform="scale(-1,1)"
       r="0.69999957" />
    <rect
       style="fill:#471d57;fill-rule:evenodd;stroke-width:0.124722"
       id="rect974"
       width="2.7999983"
       height="0.19999987"
       x="510.31076"
       y="346.79999"
       rx="0"
       ry="0" />
    <rect
       ry="0"
       rx="0"
       y="-510.51077"
       x="346.80002"
       height="0.19999987"
       width="2.5999994"
       id="rect974-3"
       style="display:inline;fill:#471d57;fill-rule:evenodd;stroke-width:0.120185;enable-background:new"
       transform="rotate(90)" />
    <path
       style="fill:#3c7902;stroke-width:0.00322152"
       d="m 510.51079,345.30003 v -1.30002 h 1.08547 c 1.18064,0 1.13937,-0.002 1.25777,0.0581 0.0688,0.0348 0.16381,0.12989 0.19866,0.19867 0.06,0.11839 0.0581,0.0771 0.0581,1.25778 V 346.6 h -1.29999 -1.3 z"
       id="path1047" />
    <path
       id="path1047-2"
       d="m 510.31082,345.50357 v -1.29649 h 1.08254 c 1.17745,0 1.13629,-0.002 1.25437,0.0579 0.0686,0.0347 0.16337,0.12954 0.19813,0.19813 0.0598,0.11807 0.0579,0.0769 0.0579,1.25437 v 1.08254 h -1.29649 -1.29648 z"
       style="display:inline;fill:#52a302;stroke-width:0.0032128;enable-background:new" />
    <rect
       ry="0"
       rx="0"
       y="346.60001"
       x="510.31073"
       height="0.19999987"
       width="2.7999983"
       id="rect974-6"
       style="display:inline;fill:#3c7902;fill-rule:evenodd;stroke-width:0.124722;enable-background:new" />
    <rect
       style="display:inline;fill:#3c7902;fill-rule:evenodd;stroke-width:0.124722;enable-background:new"
       id="rect974-6-7"
       width="2.7999983"
       height="0.19999987"
       x="344"
       y="-510.51077"
       rx="0"
       ry="0"
       transform="rotate(90)" />
    <path
       style="fill:#851b00;stroke-width:0.00321406"
       d="m 507.51479,345.50455 c 0.004,-1.07743 0.004,-1.09649 0.0256,-1.16014 0.056,-0.16849 0.19576,-0.29698 0.36187,-0.3327 0.0387,-0.008 0.36773,-0.0117 1.1316,-0.0117 h 1.07697 v 1.29999 1.30001 h -1.3 -1.3 z"
       id="path1045" />
    <path
       id="path1045-9"
       d="m 507.70978,345.70752 c 0.004,-1.07451 0.004,-1.09352 0.0256,-1.157 0.0561,-0.16804 0.19613,-0.29618 0.36256,-0.3318 0.0388,-0.008 0.36844,-0.0117 1.13379,-0.0117 h 1.07903 v 1.29648 1.29649 h -1.3025 -1.3025 z"
       style="display:inline;fill:#c02700;stroke-width:0.0032128;enable-background:new" />
    <rect
       ry="0"
       rx="0"
       y="-510.31076"
       x="344"
       height="0.19999987"
       width="2.7999983"
       id="rect974-6-5-3"
       style="display:inline;fill:#851b00;fill-rule:evenodd;stroke-width:0.124722;enable-background:new"
       transform="rotate(90)" />
    <rect
       style="display:inline;fill:#851b00;fill-rule:evenodd;stroke-width:0.124722;enable-background:new"
       id="rect974-6-5"
       width="2.7999983"
       height="0.19999987"
       x="507.51077"
       y="346.60001"
       rx="0"
       ry="0" />
    <path
       style="fill:#003445;stroke-width:0.016064"
       d="m 3.6634848,29.912446 c -0.3632069,-0.09 -0.6714035,-0.260414 -0.96122,-0.531503 C 2.2175737,28.927571 2.0353766,28.44946 2.0382821,27.638558 l 0.00186,-0.520067 0.093554,0.259708 c 0.2692848,0.747541 0.9235421,1.347705 1.6855396,1.54618 0.2651151,0.06905 1.0161947,0.07944 5.7435278,0.07944 h 5.4385285 v 0.490702 0.490702 l -5.5397733,-0.0044 c -4.2195201,-0.0033 -5.601323,-0.01964 -5.7980372,-0.06839 z"
       id="path1051"
       transform="matrix(0.19999988,0,0,0.19999988,507.11077,343.60001)" />
    <path
       id="path1049-1"
       d="m 508.08597,349.18032 c -0.12615,-0.0305 -0.24229,-0.11779 -0.30938,-0.23243 -0.0153,-0.0261 -0.037,-0.0838 -0.0484,-0.12821 -0.02,-0.078 -0.0207,-0.11448 -0.0207,-1.05024 v -0.96942 h 1.30165 1.30165 v 1.19834 1.19835 l -1.08213,-8.6e-4 c -0.8972,-7.2e-4 -1.09248,-0.003 -1.14272,-0.0155 z"
       style="display:inline;fill:#006888;stroke-width:0.0032128;enable-background:new" />
    <rect
       ry="0"
       rx="0"
       y="-510.31079"
       x="346.80002"
       height="0.19999987"
       width="2.7999778"
       id="rect974-6-5-6"
       style="display:inline;fill:#003445;fill-rule:evenodd;stroke-width:0.124721;enable-background:new"
       transform="rotate(90)" />
    <rect
       ry="0"
       rx="0"
       y="346.80002"
       x="507.51077"
       height="0.19999987"
       width="2.7999983"
       id="rect974-6-5-5"
       style="display:inline;fill:#003145;fill-rule:evenodd;stroke-width:0.124722;enable-background:new;fill-opacity:1" />
    <path
       style="opacity:0.5;fill:#753390;fill-opacity:1;stroke-width:0.00274888"
       d="m 510.31079,347.99768 v -1.19766 h 1.29511 1.2951 l -0.002,1.00984 -0.002,1.00983 -0.0225,0.0576 c -0.0465,0.11929 -0.12717,0.21087 -0.23303,0.2646 -0.11031,0.056 -0.0463,0.0532 -1.24048,0.0534 l -1.08939,10e-5 z"
       id="path1110" />
    <rect
       transform="rotate(90)"
       style="display:inline;fill:#471d57;fill-rule:evenodd;stroke-width:0.124721;enable-background:new"
       id="rect974-6-5-6-2"
       width="2.7999778"
       height="0.19999987"
       x="346.80002"
       y="-510.5108"
       rx="0"
       ry="0" />
    <rect
       transform="scale(-1)"
       style="display:inline;fill:#471d57;fill-rule:evenodd;stroke-width:0.124721;enable-background:new"
       id="rect974-6-5-6-7"
       width="2.7999778"
       height="0.19999987"
       x="-513.11078"
       y="-347"
       rx="0"
       ry="0" />
    <path
       sodipodi:nodetypes="ccc"
       inkscape:connector-curvature="0"
       id="path11751-2-3-2-70"
       d="m 508.41329,348.29572 0.39379,-0.29659 -0.39379,-0.2966"
       style="color:#bebebe;display:inline;overflow:visible;visibility:visible;opacity:1;fill:none;fill-opacity:1;stroke:#c1ebf7;stroke-width:0.20505;stroke-linecap:round;stroke-linejoin:round;stroke-miterlimit:4;stroke-dasharray:none;stroke-dashoffset:0;stroke-opacity:1;marker:none;enable-background:new" />
    <rect
       y="348.47226"
       x="508.983"
       height="0.055503443"
       width="0.45550305"
       id="rect4987-9-936"
       style="color:#bebebe;display:inline;overflow:visible;visibility:visible;opacity:1;fill:#2e3436;fill-opacity:1;fill-rule:nonzero;stroke:#c1ebf7;stroke-width:0.144497;stroke-miterlimit:4;stroke-dasharray:none;marker:none;enable-background:accumulate" />
    <g
       style="display:inline;opacity:1;fill:#2e3436;fill-opacity:1;enable-background:new"
       id="g14600-21-3-0-5"
       inkscape:label="system-file-manager"
       transform="matrix(0.09999994,0,0,0.09999994,498.71075,307.40003)">
      <rect
         ry="0"
         rx="0"
         y="398"
         x="122.0002"
         height="16"
         width="16"
         id="rect3620-8-8-0-6-3"
         style="fill:none;stroke:none" />
    </g>
    <g
       style="display:inline;opacity:1;fill:#2e3436;fill-opacity:1;enable-background:new"
       id="g14600-21-3-0-5-0"
       inkscape:label="system-file-manager"
       transform="matrix(0.09696967,0,0,0.09350675,499.12893,310.03106)">
      <rect
         ry="0"
         rx="0"
         y="398"
         x="122.0002"
         height="16"
         width="16"
         id="rect3620-8-8-0-6-3-9"
         style="fill:none;stroke:none" />
      <rect
         style="fill:#b97ace;fill-rule:evenodd;stroke-width:2.12816"
         id="rect1193"
         width="16.500006"
         height="19.25"
         x="121.5002"
         y="397.5" />
      <rect
         y="399.63901"
         x="123.56269"
         height="14.972172"
         width="12.374996"
         id="rect1193-3"
         style="display:inline;opacity:1;fill:#753390;fill-opacity:1;fill-rule:evenodd;stroke-width:1.62543;enable-background:new" />
      <rect
         y="401.77789"
         x="127.68769"
         height="2.1388817"
         width="4.1249986"
         id="rect1193-6"
         style="display:inline;opacity:1;fill:#b97ace;fill-opacity:1;fill-rule:evenodd;stroke-width:0.354695;enable-background:new"
         inkscape:transform-center-x="0.98244763"
         inkscape:transform-center-y="-0.03125" />
      <rect
         style="display:inline;opacity:1;fill:#b97ace;fill-opacity:1;fill-rule:evenodd;stroke-width:0.354695;enable-background:new"
         id="rect1193-6-0"
         width="4.1249986"
         height="2.1388817"
         x="127.68768"
         y="410.3334" />
      <rect
         inkscape:transform-center-y="-0.03125"
         inkscape:transform-center-x="3.7706386"
         style="display:inline;opacity:1;fill:#b97ace;fill-opacity:1;fill-rule:evenodd;stroke-width:0.694876;enable-background:new"
         id="rect1193-6-8"
         width="15.831756"
         height="2.1388817"
         x="122.16842"
         y="406.05563" />
    </g>
    <g
       id="g1316"
       transform="matrix(0.99890228,0,0,1,0.56261335,0.00642062)">
      <ellipse
         cy="345.39359"
         cx="511.70987"
         id="path1231-2-6"
         style="display:inline;fill:#aef766;fill-rule:evenodd;stroke-width:0.266814;enable-background:new"
         rx="0.80087864"
         ry="0.79999948" />
      <ellipse
         style="display:inline;fill:#52a302;fill-rule:evenodd;stroke-width:0.20011;enable-background:new"
         id="path1231-2"
         cx="511.70987"
         cy="345.39359"
         rx="0.60065901"
         ry="0.59999961" />
      <ellipse
         cy="345.39359"
         cx="511.70984"
         id="path1231"
         style="fill:#aef766;fill-rule:evenodd;stroke-width:0.133406"
         rx="0.40043932"
         ry="0.39999974" />
      <ellipse
         style="display:inline;fill:#52a302;fill-rule:evenodd;stroke-width:0.0667031;enable-background:new"
         id="path1231-6"
         cx="511.70987"
         cy="345.39359"
         rx="0.20021966"
         ry="0.19999987" />
      <rect
         transform="scale(-1,1)"
         y="345.59357"
         x="-512.31055"
         height="0.19999988"
         width="0.60065901"
         id="rect1278"
         style="fill:#aef766;fill-rule:evenodd;stroke-width:0.346599" />
      <rect
         style="display:inline;fill:#52a302;fill-rule:evenodd;stroke-width:0.400218;enable-background:new"
         id="rect1278-1"
         width="0.80087864"
         height="0.19999987"
         x="-512.51074"
         y="345.79358"
         transform="scale(-1,1)" />
    </g>
    <circle
       r="0.79999948"
       style="display:inline;fill:#c02700;fill-rule:evenodd;stroke-width:0.266667;enable-background:new"
       id="path1231-2-2"
       cx="508.91077"
       cy="345.39285" />
    <g
       style="display:inline;fill:#2e3436;fill-opacity:1;enable-background:new"
       transform="matrix(0.1499656,0,0,0.1499656,476.91734,265.72802)"
       inkscape:label="web-browser"
       id="g23429-7-0">
      <rect
         style="color:#bebebe;display:inline;overflow:visible;visibility:visible;fill:none;stroke:none;stroke-width:1.781;marker:none;enable-background:new"
         id="rect18110-7-1-3-6-0-6"
         y="529"
         x="183"
         height="16"
         width="16" />
      <path
         inkscape:connector-curvature="0"
         style="color:#000000;display:block;overflow:visible;visibility:visible;fill:#f3b6a6;fill-opacity:1;fill-rule:nonzero;stroke:none;stroke-width:0.999999;marker:none;enable-background:accumulate"
         d="m 216.0057,525.93386 v 10.38049 l -2.34399,-2.28818 -1.33941,2.73465 c -0.32808,0.73962 -2.03368,0.14492 -1.5487,-0.84412 l 1.32547,-2.83928 h -2.95789 z"
         id="path6242-9-2"
         sodipodi:nodetypes="cccccccc" />
    </g>
  </g>
</svg>
