<?xml version="1.0" encoding="UTF-8" standalone="no"?>
<svg
   xmlns:dc="http://purl.org/dc/elements/1.1/"
   xmlns:cc="http://creativecommons.org/ns#"
   xmlns:rdf="http://www.w3.org/1999/02/22-rdf-syntax-ns#"
   xmlns:svg="http://www.w3.org/2000/svg"
   xmlns="http://www.w3.org/2000/svg"
   xmlns:sodipodi="http://sodipodi.sourceforge.net/DTD/sodipodi-0.dtd"
   xmlns:inkscape="http://www.inkscape.org/namespaces/inkscape"
   inkscape:version="1.0 (4035a4fb49, 2020-05-01)"
   sodipodi:docname="org.xfce.settings.accessibility.svg"
   width="32"
   height="32"
   id="svg11300"
   version="1.0"
   style="display:inline;enable-background:new"
   viewBox="0 0 32 32"
   inkscape:export-filename="/home/maug/GIT/xfce4-settings/icons/32x32/org.xfce.settings.accessibility.png"
   inkscape:export-xdpi="96"
   inkscape:export-ydpi="96">
  <sodipodi:namedview
     inkscape:document-rotation="0"
     inkscape:pagecheckerboard="false"
     inkscape:lockguides="true"
     showguides="false"
     inkscape:current-layer="g831"
     inkscape:window-maximized="1"
     inkscape:window-y="25"
     inkscape:window-x="0"
     inkscape:cy="17.27351"
     inkscape:cx="17.138514"
     inkscape:zoom="24.725479"
     showgrid="true"
     id="namedview35"
     inkscape:window-height="1031"
     inkscape:window-width="1920"
     inkscape:pageshadow="2"
     inkscape:pageopacity="0"
     guidetolerance="10"
     gridtolerance="10"
     objecttolerance="10"
     borderopacity="1"
     bordercolor="#666666"
     pagecolor="#ffffff">
    <inkscape:grid
       empspacing="4"
       id="grid842"
       type="xygrid" />
  </sodipodi:namedview>
  <title
     id="title4162">Adwaita Icon Template</title>
  <defs
     id="defs3" />
  <metadata
     id="metadata4">
    <rdf:RDF>
      <cc:Work
         rdf:about="">
        <dc:format>image/svg+xml</dc:format>
        <dc:type
           rdf:resource="http://purl.org/dc/dcmitype/StillImage" />
        <dc:creator>
          <cc:Agent>
            <dc:title>GNOME Design Team</dc:title>
          </cc:Agent>
        </dc:creator>
        <dc:source />
        <cc:license
           rdf:resource="http://creativecommons.org/licenses/by-sa/4.0/" />
        <dc:title>Adwaita Icon Template</dc:title>
        <dc:subject>
          <rdf:Bag />
        </dc:subject>
        <dc:date />
        <dc:rights>
          <cc:Agent>
            <dc:title />
          </cc:Agent>
        </dc:rights>
        <dc:publisher>
          <cc:Agent>
            <dc:title />
          </cc:Agent>
        </dc:publisher>
        <dc:identifier />
        <dc:relation />
        <dc:language />
        <dc:coverage />
        <dc:description />
        <dc:contributor>
          <cc:Agent>
            <dc:title />
          </cc:Agent>
        </dc:contributor>
      </cc:Work>
      <cc:License
         rdf:about="http://creativecommons.org/licenses/by-sa/4.0/">
        <cc:permits
           rdf:resource="http://creativecommons.org/ns#Reproduction" />
        <cc:permits
           rdf:resource="http://creativecommons.org/ns#Distribution" />
        <cc:requires
           rdf:resource="http://creativecommons.org/ns#Notice" />
        <cc:requires
           rdf:resource="http://creativecommons.org/ns#Attribution" />
        <cc:permits
           rdf:resource="http://creativecommons.org/ns#DerivativeWorks" />
        <cc:requires
           rdf:resource="http://creativecommons.org/ns#ShareAlike" />
      </cc:License>
    </rdf:RDF>
  </metadata>
  <g
     inkscape:label="emoji-symbols-alt"
     transform="matrix(5.0000031,0,0,5.0000031,-2535.5554,-1718.0011)"
     id="g3547"
     style="display:inline;enable-background:new">
    <rect
       style="display:inline;opacity:1;fill:#006888;fill-opacity:1;stroke:none;stroke-width:0.0131154;stroke-linecap:butt;stroke-linejoin:miter;stroke-miterlimit:4;stroke-dasharray:none;stroke-dashoffset:0;stroke-opacity:1;marker:none;marker-start:none;marker-mid:none;marker-end:none;paint-order:normal;enable-background:new"
       id="rect838"
       width="5.5999966"
       height="5.3999968"
       x="507.51077"
       y="344.20001"
       rx="0.43076906"
       ry="0.43199974" />
    <rect
       ry="0.48706785"
       rx="0.49247971"
       y="344"
       x="507.51077"
       height="5.3999968"
       width="5.5999966"
       id="rect879-367-19-3"
       style="display:inline;opacity:1;fill:#00aade;fill-opacity:1;stroke:none;stroke-width:0.0131154;stroke-linecap:butt;stroke-linejoin:miter;stroke-miterlimit:4;stroke-dasharray:none;stroke-dashoffset:0;stroke-opacity:1;marker:none;marker-start:none;marker-mid:none;marker-end:none;paint-order:normal;enable-background:new" />
    <rect
       transform="scale(-1,1)"
       style="display:inline;opacity:0.528;fill:none;fill-opacity:1;stroke:#006888;stroke-width:0.199995;stroke-linecap:butt;stroke-linejoin:miter;stroke-miterlimit:4;stroke-dasharray:none;stroke-dashoffset:0;stroke-opacity:1;marker:none;marker-start:none;marker-mid:none;marker-end:none;paint-order:normal;enable-background:new"
       id="rect896"
       width="5.400002"
       height="5.2000017"
       x="-513.01074"
       y="344.10001"
       rx="0.42092463"
       ry="0.41600156" />
    <g
       style="display:inline;stroke-width:2.45822;enable-background:new"
       transform="matrix(0.05517238,0,0,0.05423984,506.77973,347.66784)"
       id="g831">
      <path
         style="overflow:visible;fill:#fbfbfb;fill-opacity:1;stroke-width:2.76435;marker:none"
         d="m 34.595659,-34.436265 c -2.885441,0.04041 -4.298409,3.526886 -2.255022,5.562852 1.258938,1.25789 1.909811,1.178051 2.777368,1.425718 5.935912,1.244857 12.136337,3.616861 18.007018,4.073091 -0.319625,12.233482 -1.863821,27.372243 -3.625,33.1859176 -0.978446,3.2131624 -2.79028,5.2923524 -3.527376,6.9869214 l -0.930033,2.138577 c -0.254396,0.599617 -0.611528,0.790766 -0.611528,2.354982 -0.0052,2.908074 3.51205,4.362988 5.567466,2.304068 1.48724,-1.492525 2.613269,-3.431809 4.178783,-6.097496 1.57204,-2.665686 3.312141,-5.85991 4.955933,-8.9362042 2.602668,-4.8686264 4.005721,-8.10521595 4.866755,-9.8128204 0.867556,1.71412175 2.264089,4.944194 4.866757,9.8128204 1.590075,3.0126752 3.241393,5.9924642 4.955933,8.9362042 1.565511,2.665687 2.691543,4.604971 4.178785,6.097496 2.055852,2.047736 5.566853,0.596407 5.567466,-2.304068 0,-1.564216 -0.357133,-1.755365 -0.611527,-2.354982 -0.254402,-0.606133 -0.558243,-1.278563 -0.930036,-2.125848 -0.737101,-1.694569 -2.548924,-3.793004 -3.527378,-6.9996504 -1.761198,-5.820191 -3.298852,-20.9524356 -3.625,-33.1859176 5.342252,-0.521731 12.806096,-2.746537 18.007022,-4.073091 0.867548,-0.247667 1.518427,-0.167828 2.777366,-1.425718 2.150342,-2.146335 0.455363,-5.803004 -2.573521,-5.550123 0,0 -19.521561,3.622678 -28.940741,3.622678 -9.425704,0 -29.230987,-3.622678 -29.230987,-3.622678 -0.104367,-0.01304 -0.21415,-0.01304 -0.318517,-0.01304 z"
         id="path2"
         inkscape:connector-curvature="0"
         sodipodi:nodetypes="cccccccccccccccccccccccsccc" />
      <ellipse
         style="opacity:1;fill:#ffffff;fill-opacity:1;fill-rule:nonzero;stroke:none;stroke-width:2.6962;stroke-linecap:round;stroke-linejoin:round;stroke-miterlimit:4;stroke-dasharray:none;stroke-dashoffset:0;stroke-opacity:1"
         id="path4614"
         cx="64.000023"
         cy="-45.49855"
         rx="10.875"
         ry="11.061973" />
    </g>
  </g>
</svg>
