<?xml version="1.0" encoding="UTF-8" standalone="no"?>
<svg
   xmlns:dc="http://purl.org/dc/elements/1.1/"
   xmlns:cc="http://creativecommons.org/ns#"
   xmlns:rdf="http://www.w3.org/1999/02/22-rdf-syntax-ns#"
   xmlns:svg="http://www.w3.org/2000/svg"
   xmlns="http://www.w3.org/2000/svg"
   xmlns:sodipodi="http://sodipodi.sourceforge.net/DTD/sodipodi-0.dtd"
   xmlns:inkscape="http://www.inkscape.org/namespaces/inkscape"
   viewBox="0 0 48 48"
   style="display:inline;enable-background:new"
   version="1.0"
   id="svg11300"
   height="48"
   width="48"
   sodipodi:docname="org.xfce.settings.accessibility.svg"
   inkscape:version="0.92.4 (5da689c313, 2019-01-14)">
  <sodipodi:namedview
     pagecolor="#ffffff"
     bordercolor="#666666"
     borderopacity="1"
     objecttolerance="10"
     gridtolerance="10"
     guidetolerance="10"
     inkscape:pageopacity="0"
     inkscape:pageshadow="2"
     inkscape:window-width="1920"
     inkscape:window-height="1027"
     id="namedview35"
     showgrid="true"
     inkscape:zoom="5.6568543"
     inkscape:cx="-27.025875"
     inkscape:cy="18.026156"
     inkscape:window-x="0"
     inkscape:window-y="29"
     inkscape:window-maximized="1"
     inkscape:current-layer="g3547"
     showguides="false"
     inkscape:lockguides="true"
     inkscape:pagecheckerboard="false">
    <inkscape:grid
       type="xygrid"
       id="grid842"
       empspacing="4" />
  </sodipodi:namedview>
  <title
     id="title4162">Adwaita Icon Template</title>
  <defs
     id="defs3" />
  <metadata
     id="metadata4">
    <rdf:RDF>
      <cc:Work
         rdf:about="">
        <dc:format>image/svg+xml</dc:format>
        <dc:type
           rdf:resource="http://purl.org/dc/dcmitype/StillImage" />
        <dc:creator>
          <cc:Agent>
            <dc:title>GNOME Design Team</dc:title>
          </cc:Agent>
        </dc:creator>
        <dc:source />
        <cc:license
           rdf:resource="http://creativecommons.org/licenses/by-sa/4.0/" />
        <dc:title>Adwaita Icon Template</dc:title>
        <dc:subject>
          <rdf:Bag />
        </dc:subject>
        <dc:date />
        <dc:rights>
          <cc:Agent>
            <dc:title />
          </cc:Agent>
        </dc:rights>
        <dc:publisher>
          <cc:Agent>
            <dc:title />
          </cc:Agent>
        </dc:publisher>
        <dc:identifier />
        <dc:relation />
        <dc:language />
        <dc:coverage />
        <dc:description />
        <dc:contributor>
          <cc:Agent>
            <dc:title />
          </cc:Agent>
        </dc:contributor>
      </cc:Work>
      <cc:License
         rdf:about="http://creativecommons.org/licenses/by-sa/4.0/">
        <cc:permits
           rdf:resource="http://creativecommons.org/ns#Reproduction" />
        <cc:permits
           rdf:resource="http://creativecommons.org/ns#Distribution" />
        <cc:requires
           rdf:resource="http://creativecommons.org/ns#Notice" />
        <cc:requires
           rdf:resource="http://creativecommons.org/ns#Attribution" />
        <cc:permits
           rdf:resource="http://creativecommons.org/ns#DerivativeWorks" />
        <cc:requires
           rdf:resource="http://creativecommons.org/ns#ShareAlike" />
      </cc:License>
    </rdf:RDF>
  </metadata>
  <g
     style="display:inline;enable-background:new"
     id="g3547"
     transform="matrix(5.0000031,0,0,5.0000031,-2535.5554,-1718.0011)"
     inkscape:label="emoji-symbols-alt">
    <rect
       ry="0.90000588"
       rx="0.90000588"
       y="344.60001"
       x="507.91077"
       height="7.7999859"
       width="7.9999666"
       id="rect890"
       style="display:inline;opacity:1;fill:#006888;fill-opacity:1;stroke:none;stroke-width:0.01936486;stroke-linecap:butt;stroke-linejoin:miter;stroke-miterlimit:4;stroke-dasharray:none;stroke-dashoffset:0;stroke-opacity:1;marker:none;marker-start:none;marker-mid:none;marker-end:none;paint-order:normal;enable-background:new" />
    <rect
       style="display:inline;opacity:1;fill:#00aade;fill-opacity:1;stroke:none;stroke-width:0.19999988;stroke-linecap:butt;stroke-linejoin:miter;stroke-miterlimit:4;stroke-dasharray:none;stroke-dashoffset:0;stroke-opacity:1;marker:none;marker-start:none;marker-mid:none;marker-end:none;paint-order:normal;enable-background:new"
       id="rect833-4-7"
       width="7.9999952"
       height="7.7999949"
       x="507.9108"
       y="344.39999"
       rx="0.9000091"
       ry="0.90000695" />
    <g
       id="g831"
       transform="matrix(0.08135976,0,0,0.08135976,506.72296,349.66434)"
       style="display:inline;stroke-width:2.45821619;enable-background:new">
      <path
         sodipodi:nodetypes="cccccccccccccccccccccccsccc"
         inkscape:connector-curvature="0"
         id="path2"
         d="m 37.862406,-31.611946 c -2.564837,0.03595 -3.820809,3.137611 -2.004464,4.94886 1.119055,1.119053 1.69761,1.048025 2.468771,1.268357 5.276366,1.107457 10.857903,2.074214 16.076287,2.480089 -0.284112,10.883229 -2.484055,25.255232 -4.049547,30.427231 -0.86973,2.858514 -1.722972,4.947497 -2.378169,6.45503 l -0.826696,1.902535 c -0.22613,0.533435 -0.543581,0.703486 -0.543581,2.095054 -0.0046,2.5871 3.121823,3.88143 4.948859,2.04976 1.321991,-1.32779 2.322906,-3.053029 3.714475,-5.424494 1.397368,-2.371465 2.944125,-5.213131 4.405273,-7.949883 2.313483,-4.331259 3.560641,-6.849761 4.326005,-8.368891 0.771161,1.524928 2.012523,4.037632 4.326006,8.368891 1.4134,2.680155 2.881238,5.331054 4.405274,7.949883 1.391565,2.371465 2.392482,4.096704 3.714475,5.424494 1.827425,1.82172 4.948314,0.53058 4.948859,-2.04976 0,-1.391568 -0.317451,-1.561619 -0.543579,-2.095054 C 80.624518,15.330924 80.354438,14.732712 80.023955,13.978945 79.368754,12.471412 78.51552,10.376631 77.645783,7.523914 76.080273,2.346118 73.88591,-12.031411 73.596,-22.91464 c 4.748669,-0.464146 11.453483,-1.299952 16.076528,-2.480089 0.771154,-0.220332 1.349713,-0.149304 2.46877,-1.268357 1.911408,-1.909436 0.404767,-5.162506 -2.287575,-4.937536 0,0 -17.4815,1.438226 -25.854104,1.438226 -8.378404,0 -25.8541,-1.438226 -25.8541,-1.438226 -0.09277,-0.0116 -0.190355,-0.0116 -0.283126,-0.0116 z"
         style="overflow:visible;fill:#fbfbfb;fill-opacity:1;stroke-width:2.45821619;marker:none" />
      <circle
         r="10"
         cy="-42.873241"
         cx="64"
         id="path4614"
         style="opacity:1;fill:#ffffff;fill-opacity:1;fill-rule:nonzero;stroke:none;stroke-width:2.45821619;stroke-linecap:round;stroke-linejoin:round;stroke-miterlimit:4;stroke-dasharray:none;stroke-dashoffset:0;stroke-opacity:1" />
    </g>
    <rect
       ry="0.87692982"
       rx="0.87750882"
       y="344.5"
       x="508.01077"
       height="7.5999951"
       width="7.7999949"
       id="rect822"
       style="display:inline;opacity:0.423;fill:none;fill-opacity:1;stroke:#006888;stroke-width:0.19999988;stroke-linecap:butt;stroke-linejoin:miter;stroke-miterlimit:4;stroke-dasharray:none;stroke-dashoffset:0;stroke-opacity:1;marker:none;marker-start:none;marker-mid:none;marker-end:none;paint-order:normal;enable-background:new" />
  </g>
</svg>
