<?xml version="1.0" encoding="UTF-8" standalone="no"?>
<!-- Created with Inkscape (http://www.inkscape.org/) -->

<svg
   xmlns:dc="http://purl.org/dc/elements/1.1/"
   xmlns:cc="http://creativecommons.org/ns#"
   xmlns:rdf="http://www.w3.org/1999/02/22-rdf-syntax-ns#"
   xmlns:svg="http://www.w3.org/2000/svg"
   xmlns="http://www.w3.org/2000/svg"
   xmlns:sodipodi="http://sodipodi.sourceforge.net/DTD/sodipodi-0.dtd"
   xmlns:inkscape="http://www.inkscape.org/namespaces/inkscape"
   width="48"
   height="48"
   viewBox="0 0 12.7 12.7"
   version="1.1"
   id="svg8"
   inkscape:version="0.92.3 (2405546, 2018-03-11)"
   sodipodi:docname="preferences-color-tango.svg">
  <defs
     id="defs2" />
  <sodipodi:namedview
     id="base"
     pagecolor="#ffffff"
     bordercolor="#666666"
     borderopacity="1.0"
     inkscape:pageopacity="0.0"
     inkscape:pageshadow="2"
     inkscape:zoom="5.6"
     inkscape:cx="17.530148"
     inkscape:cy="24.177929"
     inkscape:document-units="mm"
     inkscape:current-layer="layer1"
     showgrid="true"
     units="px"
     inkscape:window-width="958"
     inkscape:window-height="1028"
     inkscape:window-x="0"
     inkscape:window-y="27"
     inkscape:window-maximized="0">
    <inkscape:grid
       type="xygrid"
       id="grid877" />
  </sodipodi:namedview>
  <metadata
     id="metadata5">
    <rdf:RDF>
      <cc:Work
         rdf:about="">
        <dc:format>image/svg+xml</dc:format>
        <dc:type
           rdf:resource="http://purl.org/dc/dcmitype/StillImage" />
        <dc:title></dc:title>
      </cc:Work>
    </rdf:RDF>
  </metadata>
  <g
     inkscape:label="Layer 1"
     inkscape:groupmode="layer"
     id="layer1"
     transform="translate(0,-284.29998)">
    <path
       style="opacity:0.5;fill:#73d216;fill-opacity:1;fill-rule:nonzero;stroke:#000000;stroke-width:0.26458332;stroke-linecap:round;stroke-linejoin:round;stroke-miterlimit:4;stroke-dasharray:none;stroke-dashoffset:0;stroke-opacity:1"
       d="m 6.240446,290.21848 a 3.0427083,3.0427083 0 0 1 0.153479,0.14676 3.0427083,3.0427083 0 0 0 -0.153479,-0.14676 z m 0.258382,0.25942 a 3.0427083,3.0427083 0 0 1 0.099219,0.11575 3.0427083,3.0427083 0 0 0 -0.099219,-0.11575 z m 0.1886191,0.23357 a 3.0427083,3.0427083 0 0 1 0.092501,0.13281 3.0427083,3.0427083 0 0 0 -0.092501,-0.13281 z m 0.1627806,0.24702 a 3.0427083,3.0427083 0 0 1 0.085783,0.15399 3.0427083,3.0427083 0 0 0 -0.085783,-0.15399 z m 0.1369426,0.25941 a 3.0427083,3.0427083 0 0 1 0.075964,0.1757 3.0427083,3.0427083 0 0 0 -0.075964,-0.1757 z m 0.1136882,0.27906 a 3.0427083,3.0427083 0 0 1 0.059945,0.18913 3.0427083,3.0427083 0 0 0 -0.059945,-0.18913 z m -1.8138428,0.14727 a 3.0427083,3.0427083 0 0 0 -0.1276408,0.85783 3.0427083,3.0427083 0 0 0 1.0567831,2.30322 3.0427083,3.0427083 0 0 0 1.0598835,-2.30322 3.0427083,3.0427083 0 0 0 -0.104903,-0.77514 3.0427083,3.0427083 0 0 1 -0.8211386,0.11368 3.0427083,3.0427083 0 0 1 -1.0629842,-0.19637 z"
       id="path904"
       inkscape:connector-curvature="0" />
    <path
       style="opacity:1;fill:#fce94f;fill-opacity:1;fill-rule:nonzero;stroke:#000000;stroke-width:0.26458332;stroke-linecap:round;stroke-linejoin:round;stroke-miterlimit:4;stroke-dasharray:none;stroke-dashoffset:0;stroke-opacity:1"
       d="m 6.3499999,285.75521 a 3.0427083,3.0427083 0 0 0 -3.0427083,3.04271 3.0427083,3.0427083 0 0 0 0.1023194,0.77566 3.0427083,3.0427083 0 0 1 0.8237223,-0.1142 3.0427083,3.0427083 0 0 1 1.9848917,0.74052 3.0427083,3.0427083 0 0 1 1.9838582,-0.74052 3.0427083,3.0427083 0 0 1 1.0655681,0.19688 3.0427083,3.0427083 0 0 0 0.1250569,-0.85834 3.0427083,3.0427083 0 0 0 -3.0427083,-3.04271 z"
       id="circle844"
       inkscape:connector-curvature="0" />
    <path
       style="opacity:1;fill:#ef2929;fill-opacity:1;fill-rule:nonzero;stroke:#000000;stroke-width:0.99999994;stroke-linecap:round;stroke-linejoin:round;stroke-miterlimit:4;stroke-dasharray:none;stroke-dashoffset:0;stroke-opacity:1"
       d="M 16 19.5 A 11.5 11.5 0 0 1 17.289062 19.574219 A 11.5 11.5 0 0 0 16 19.5 z M 16 19.5 A 11.5 11.5 0 0 0 13.566406 19.765625 A 11.5 11.5 0 0 1 16 19.5 z M 12.888672 19.939453 A 11.5 11.5 0 0 0 4.5 31 A 11.5 11.5 0 0 0 16 42.5 A 11.5 11.5 0 0 0 23.494141 39.705078 A 11.5 11.5 0 0 1 19.5 31 A 11.5 11.5 0 0 1 19.978516 27.757812 A 11.5 11.5 0 0 1 12.888672 19.939453 z "
       transform="matrix(0.26458333,0,0,0.26458333,0,284.29998)"
       id="circle851" />
    <path
       style="opacity:1;fill:#73d216;fill-opacity:1;fill-rule:nonzero;stroke:#000000;stroke-width:0.99999994;stroke-linecap:round;stroke-linejoin:round;stroke-miterlimit:4;stroke-dasharray:none;stroke-dashoffset:0;stroke-opacity:1"
       d="M 31.695312 19.525391 A 11.5 11.5 0 0 1 32.664062 19.632812 A 11.5 11.5 0 0 0 31.695312 19.525391 z M 32.822266 19.652344 A 11.5 11.5 0 0 1 35.025391 20.242188 A 11.5 11.5 0 0 1 27.113281 28.056641 A 11.5 11.5 0 0 1 27.5 31 A 11.5 11.5 0 0 1 23.505859 39.705078 A 11.5 11.5 0 0 0 31 42.5 A 11.5 11.5 0 0 0 42.5 31 A 11.5 11.5 0 0 0 32.822266 19.652344 z M 23.572266 22.228516 A 11.5 11.5 0 0 0 23.494141 22.294922 A 11.5 11.5 0 0 1 23.498047 22.298828 A 11.5 11.5 0 0 1 23.572266 22.228516 z "
       transform="matrix(0.26458333,0,0,0.26458333,0,284.29998)"
       id="circle856" />
    <path
       style="opacity:0.5;fill:#ef2929;fill-opacity:1;fill-rule:nonzero;stroke:#000000;stroke-width:0.99999994;stroke-linecap:round;stroke-linejoin:round;stroke-miterlimit:4;stroke-dasharray:none;stroke-dashoffset:0;stroke-opacity:1"
       d="M 16 19.5 A 11.5 11.5 0 0 0 12.886719 19.931641 A 11.5 11.5 0 0 0 19.974609 27.755859 A 11.5 11.5 0 0 1 23.503906 22.292969 A 11.5 11.5 0 0 0 16 19.5 z M 20.021484 27.773438 A 11.5 11.5 0 0 0 20.960938 28.074219 A 11.5 11.5 0 0 1 20.021484 27.773438 z M 27.109375 28.058594 A 11.5 11.5 0 0 1 26.285156 28.269531 A 11.5 11.5 0 0 0 27.113281 28.068359 A 11.5 11.5 0 0 0 27.109375 28.058594 z M 21.173828 28.132812 A 11.5 11.5 0 0 0 21.994141 28.308594 A 11.5 11.5 0 0 1 21.173828 28.132812 z M 22.386719 28.373047 A 11.5 11.5 0 0 0 23.072266 28.449219 A 11.5 11.5 0 0 1 22.386719 28.373047 z M 23.714844 28.490234 A 11.5 11.5 0 0 0 24 28.5 A 11.5 11.5 0 0 1 23.714844 28.490234 z "
       transform="matrix(0.26458333,0,0,0.26458333,0,284.29998)"
       id="circle864" />
    <path
       style="opacity:0.5;fill:#fce94f;fill-opacity:1;fill-rule:nonzero;stroke:#000000;stroke-width:0.99999994;stroke-linecap:round;stroke-linejoin:round;stroke-miterlimit:4;stroke-dasharray:none;stroke-dashoffset:0;stroke-opacity:1"
       d="M 31 19.5 A 11.5 11.5 0 0 0 23.503906 22.292969 A 11.5 11.5 0 0 1 27.109375 28.058594 A 11.5 11.5 0 0 0 35.025391 20.242188 A 11.5 11.5 0 0 0 31 19.5 z M 19.974609 27.755859 A 11.5 11.5 0 0 0 19.974609 27.757812 A 11.5 11.5 0 0 0 20.021484 27.773438 A 11.5 11.5 0 0 1 19.974609 27.755859 z M 20.960938 28.074219 A 11.5 11.5 0 0 0 21.173828 28.132812 A 11.5 11.5 0 0 1 20.960938 28.074219 z M 21.994141 28.308594 A 11.5 11.5 0 0 0 22.386719 28.373047 A 11.5 11.5 0 0 1 21.994141 28.308594 z M 23.072266 28.449219 A 11.5 11.5 0 0 0 23.714844 28.490234 A 11.5 11.5 0 0 1 23.072266 28.449219 z "
       transform="matrix(0.26458333,0,0,0.26458333,0,284.29998)"
       id="path880" />
    <path
       id="path895"
       d="m 8.2020833,289.45935 a 3.0427083,3.0427083 0 0 0 -1.983342,0.73898 3.0427083,3.0427083 0 0 1 0.953947,1.52549 3.0427083,3.0427083 0 0 0 2.094446,-2.06809 3.0427083,3.0427083 0 0 0 -1.065051,-0.19638 z m -2.917135,2.18437 a 3.0427083,3.0427083 0 0 0 0,5.1e-4 3.0427083,3.0427083 0 0 0 0.0124,0.004 3.0427083,3.0427083 0 0 1 -0.0124,-0.005 z m 0.260966,0.0842 a 3.0427083,3.0427083 0 0 0 0.05633,0.0155 3.0427083,3.0427083 0 0 1 -0.05633,-0.0155 z m 0.273369,0.062 a 3.0427083,3.0427083 0 0 0 0.103869,0.0171 3.0427083,3.0427083 0 0 1 -0.103869,-0.0171 z m 0.285254,0.0372 a 3.0427083,3.0427083 0 0 0 0.170015,0.0108 3.0427083,3.0427083 0 0 1 -0.170015,-0.0108 z"
       style="opacity:0.5;fill:#73d216;fill-opacity:1;fill-rule:nonzero;stroke:#000000;stroke-width:0.26458332;stroke-linecap:round;stroke-linejoin:round;stroke-miterlimit:4;stroke-dasharray:none;stroke-dashoffset:0;stroke-opacity:1"
       inkscape:connector-curvature="0" />
    <path
       id="path897"
       d="m 4.2333333,289.45935 a 3.0427083,3.0427083 0 0 0 -0.8237222,0.11421 3.0427083,3.0427083 0 0 0 1.8753375,2.07016 3.0427083,3.0427083 0 0 1 0.9337931,-1.44539 3.0427083,3.0427083 0 0 0 -1.9854084,-0.73898 z m 1.0640176,2.18902 a 3.0427083,3.0427083 0 0 0 0.2485639,0.0796 3.0427083,3.0427083 0 0 1 -0.2485639,-0.0796 z m 1.8753378,0.0754 a 3.0427083,3.0427083 0 0 1 -0.2180746,0.0558 3.0427083,3.0427083 0 0 0 0.2191081,-0.0532 3.0427083,3.0427083 0 0 0 -0.00103,-0.003 z m -1.5704468,0.0196 a 3.0427083,3.0427083 0 0 0 0.2170412,0.0465 3.0427083,3.0427083 0 0 1 -0.2170412,-0.0465 z m 0.3209108,0.0636 a 3.0427083,3.0427083 0 0 0 0.1813843,0.0202 3.0427083,3.0427083 0 0 1 -0.1813843,-0.0202 z m 0.3513997,0.031 a 3.0427083,3.0427083 0 0 0 0.075448,0.003 3.0427083,3.0427083 0 0 1 -0.075448,-0.003 z"
       style="opacity:0.5;fill:#fce94f;fill-opacity:1;fill-rule:nonzero;stroke:#000000;stroke-width:0.26458332;stroke-linecap:round;stroke-linejoin:round;stroke-miterlimit:4;stroke-dasharray:none;stroke-dashoffset:0;stroke-opacity:1"
       inkscape:connector-curvature="0" />
    <path
       inkscape:connector-curvature="0"
       id="path899"
       d="m 6.240446,290.21848 a 3.0427083,3.0427083 0 0 1 0.153479,0.14676 3.0427083,3.0427083 0 0 0 -0.153479,-0.14676 z m 0.258382,0.25942 a 3.0427083,3.0427083 0 0 1 0.099219,0.11575 3.0427083,3.0427083 0 0 0 -0.099219,-0.11575 z m 0.1886191,0.23357 a 3.0427083,3.0427083 0 0 1 0.092501,0.13281 3.0427083,3.0427083 0 0 0 -0.092501,-0.13281 z m 0.1627806,0.24702 a 3.0427083,3.0427083 0 0 1 0.085783,0.15399 3.0427083,3.0427083 0 0 0 -0.085783,-0.15399 z m 0.1369426,0.25941 a 3.0427083,3.0427083 0 0 1 0.075964,0.1757 3.0427083,3.0427083 0 0 0 -0.075964,-0.1757 z m 0.1136882,0.27906 a 3.0427083,3.0427083 0 0 1 0.059945,0.18913 3.0427083,3.0427083 0 0 0 -0.059945,-0.18913 z m -1.8138428,0.14727 a 3.0427083,3.0427083 0 0 0 -0.1276408,0.85783 3.0427083,3.0427083 0 0 0 1.0567831,2.30322 3.0427083,3.0427083 0 0 0 1.0598835,-2.30322 3.0427083,3.0427083 0 0 0 -0.104903,-0.77514 3.0427083,3.0427083 0 0 1 -0.8211386,0.11368 3.0427083,3.0427083 0 0 1 -1.0629842,-0.19637 z"
       style="opacity:0.5;fill:#ef2929;fill-opacity:1;fill-rule:nonzero;stroke:#000000;stroke-width:0.26458332;stroke-linecap:round;stroke-linejoin:round;stroke-miterlimit:4;stroke-dasharray:none;stroke-dashoffset:0;stroke-opacity:1" />
  </g>
</svg>
